<svg width="1155" height="586" viewBox="0 0 1155 586" fill="none" xmlns="http://www.w3.org/2000/svg">
<path d="M877.671 17.4904C908.591 14.5064 938.131 19.6164 967.661 26.9624C1120.12 64.8964 1175.66 230.532 1147.39 372.053C1123.19 493.255 1030.47 572.946 907.421 581.364C883.591 582.995 860.421 582.378 836.831 582.374L734.521 582.049L734.431 337.654L734.481 270.284C734.481 261.863 734.941 241.148 733.761 233.602C747.101 204.856 761.071 174.605 775.781 146.58C782.401 133.964 793.691 116.716 801.381 104.413L801.961 556.899C841.211 559.964 890.621 560.258 928.571 550.421C1077.1 508.32 1098.77 330.957 1067.56 199.45C1040.65 86.0774 908.171 -16.4676 800.611 76.5584C768.901 103.978 735.981 175.282 717.991 215.804C682.791 295.106 645.171 375.535 610.531 455.559L574.021 539.833C567.581 554.412 560.131 572.352 552.551 585.995C543.761 585.778 534.981 585.421 526.211 584.924C520.121 574.718 512.821 559.158 507.461 548.393L472.001 476.38L436.271 404.072C429.471 390.424 421.261 375.265 415.351 361.417C412.441 369.794 408.231 378.211 404.461 386.276C391.971 413.259 322.631 573.647 313.621 582.079C308.621 586.752 293.621 585.167 287.071 585.156C281.741 575.392 275.291 558.398 270.951 547.679C261.391 524.136 252.031 500.512 242.871 476.81L160.417 264.705C144.003 221.264 129.55 176.509 105.261 136.638C90.973 113.184 71.206 91.0054 44.041 83.0414C27.853 78.2964 15.461 81.9094 0 86.5544C6.64 79.0574 15.45 71.0984 25.121 68.2884C159.729 29.1754 215.151 228.903 246.401 311.39C270.541 376.467 295.761 441.141 322.041 505.385C327.341 489.541 340.771 462.912 347.961 446.921C365.211 408.547 381.991 368.006 399.731 330.073C374.331 282.62 353.111 231.587 328.031 183.785C303.431 136.876 277.541 71.1094 212.221 80.0594C217.281 76.2394 221.771 73.1074 227.251 70.1104C243.661 61.1334 274.001 61.6984 291.391 68.2534C349.471 90.1514 380.901 152.249 406.421 203.708C415.901 222.503 425.161 241.404 434.211 260.405C445.571 233.916 455.101 205.918 466.011 179.167C470.631 167.836 474.681 151.561 481.221 141.723C489.391 154.77 493.701 157.763 505.171 167.939L477.821 230.477C469.201 249.87 459.101 271.563 451.741 291.351C468.501 331.378 493.711 377.857 512.961 417.548C522.601 437.419 546.821 488.198 557.581 504.076C563.751 492.517 577.061 456.514 582.471 443.419C609.041 376.34 635.041 307.797 660.341 240.3C705.151 120.709 733.931 29.0394 877.671 17.4904Z" fill="#F8FAFC"/>
<path d="M723.881 32.3324C726.861 31.9844 727.631 32.0544 730.641 32.2894C672.761 50.7024 662.791 92.6884 627.651 134.102C597.391 169.768 573.551 188.004 525.361 192.135C533.481 201.474 541.171 208.428 553.001 212.809C557.421 214.445 563.561 216.462 567.541 218.689L561.851 219.422C537.131 215.028 524.371 204.483 509.561 184.898C589.791 187.01 617.001 128.156 658.841 72.3664C676.631 48.6424 694.051 35.9824 723.881 32.3324Z" fill="#F8FAFC"/>
<path d="M622.421 212.414C631.421 204.166 636.151 193.244 641.661 182.728C663.591 140.883 672.001 93.8444 707.441 60.4604L708.801 63.1134C682.131 96.7834 674.281 138.276 653.981 175.44C645.961 190.107 634.981 200.942 624.201 213.273L622.421 212.414Z" fill="#F8FAFC"/>
<path d="M405.901 141.158C415.731 145.168 424.991 150.491 434.131 155.819L434.751 155.318C442.361 149.333 451.141 145.358 459.741 140.877L459.721 169.214L459.001 171.381C453.171 172.812 438.941 164.746 433.771 161.669C423.931 165.815 416.121 169.316 405.801 172.03L405.901 141.158Z" fill="#F8FAFC"/>
<path d="M763.721 15.2314C779.311 -24.1986 800.841 24.1114 776.471 35.0484L774.071 34.9434C772.381 32.5414 773.191 27.6094 773.361 24.3704C769.711 25.8664 772.041 28.4924 766.971 31.4344C765.401 30.5694 763.161 29.6224 761.491 28.8474C761.691 25.2294 761.471 19.7034 761.361 16.0094L763.721 15.2314Z" fill="#F8FAFC"/>
<path d="M761.361 16.0095L763.721 15.2314C763.481 21.7984 762.241 26.4184 766.971 31.4344C765.401 30.5694 763.161 29.6224 761.491 28.8474C761.691 25.2294 761.471 19.7035 761.361 16.0095Z" fill="#95989A"/>
<path d="M594.011 212.972L594.141 214.759C587.641 224.754 580.601 234.676 570.581 241.436C580.661 255.716 588.561 261.588 605.681 268.367C609.801 269.996 614.631 268.933 619.101 271.521L611.531 271.738C598.691 270.593 585.391 267.601 576.121 259.8C547.751 235.935 564.531 239.195 584.651 222.955C587.311 220.803 591.711 215.641 594.011 212.972Z" fill="#F8FAFC"/>
<path d="M743.081 33.8644C749.241 33.2414 756.701 34.4074 761.261 38.8414L760.901 40.2394L756.141 42.3664C759.531 44.5794 762.631 45.5924 763.491 48.6734C761.401 51.5614 758.571 52.2344 755.161 53.6554C741.981 55.7964 739.821 55.4414 728.531 48.5344C733.251 40.2954 734.971 38.9174 743.081 33.8644Z" fill="#F8FAFC"/>
<path d="M737.551 4.02136C747.401 5.10836 756.061 6.54637 761.361 16.0094C761.471 19.7034 761.691 25.2294 761.491 28.8474C759.821 27.5674 759.051 27.0854 757.231 26.0224L756.711 27.1003L760.591 34.8383C741.621 30.5173 737.141 22.7984 737.551 4.02136Z" fill="#F8FAFC"/>
<path d="M707.441 60.4604C714.701 53.0244 719.041 49.1694 728.181 44.1664C720.711 50.6194 715.331 55.4414 708.801 63.1134L707.441 60.4604Z" fill="#42474B"/>
<path d="M624.201 213.273C621.211 216.058 616.691 220.882 612.741 221.072C614.681 217.581 619.061 214.918 622.421 212.414L624.201 213.273Z" fill="#95989A"/>
</svg>
